<svg width="17" height="12" viewBox="0 0 17 12" fill="none" xmlns="http://www.w3.org/2000/svg">
<g id="Layer_1">
<g id="Group">
<g id="Group_2">
<path id="Vector" d="M14.4054 11.4649H2.2973C1.58378 11.4649 1 10.8811 1 10.1676V2.2973C1 1.58378 1.58378 1 2.2973 1H14.4054C15.1189 1 15.7027 1.58378 15.7027 2.2973V10.1892C15.7027 10.9027 15.1189 11.4649 14.4054 11.4649Z" stroke="#E87A80" stroke-miterlimit="10" stroke-linecap="round" stroke-linejoin="round"/>
</g>
<g id="Group_3">
<path id="Vector_2" d="M1.30273 1.30273L6.94598 7.40003C7.70273 8.22165 8.97841 8.22165 9.73517 7.40003L15.3784 1.30273" stroke="#E87A80" stroke-miterlimit="10" stroke-linecap="round" stroke-linejoin="round"/>
</g>
<g id="Group_4">
<g id="Group_5">
<path id="Vector_3" d="M4.48105 7.81104C3.42159 8.95698 2.79457 9.67049 1.73511 10.8164" stroke="#E87A80" stroke-miterlimit="10" stroke-linecap="round" stroke-linejoin="round"/>
</g>
<path id="Vector_4" d="M14.9675 10.8164C13.908 9.67049 13.281 8.95698 12.2216 7.81104" stroke="#E87A80" stroke-miterlimit="10" stroke-linecap="round" stroke-linejoin="round"/>
</g>
</g>
</g>
</svg>
